<?xml version="1.0" encoding="iso-8859-1"?>
<!-- Uploaded to: SVG Repo, www.svgrepo.com, Generator: SVG Repo Mixer Tools -->
<!DOCTYPE svg PUBLIC "-//W3C//DTD SVG 1.1//EN" "http://www.w3.org/Graphics/SVG/1.1/DTD/svg11.dtd">
<svg fill="#000000" version="1.1" id="Capa_1" xmlns="http://www.w3.org/2000/svg" xmlns:xlink="http://www.w3.org/1999/xlink" 
	 width="800px" height="800px" viewBox="0 0 376.357 376.357"
	 xml:space="preserve">
<g>
	<g>
		<path d="M283.426,186.846c34.631,0,63.598-33.373,63.598-69.928c0-38.799-31.451-70.25-70.25-70.25
			c-36.553,0-69.928,29.103-69.928,63.6l0.029,76.544L283.426,186.846z"/>
		<path d="M94.242,206.846c-41.877,0-76.908,40.357-76.908,84.562c0,46.918,38.033,84.949,84.951,84.949
			c44.202,0,84.561-35.191,84.561-76.907l-0.035-92.563L94.242,206.846z"/>
		<path d="M299.451,206.846l-92.57,0.041l-0.035,92.563c0,41.716,40.359,76.907,84.561,76.907c46.918,0,84.951-38.031,84.951-84.949
			C376.357,247.203,341.328,206.846,299.451,206.846z"/>
		<path d="M93.637,0C41.922,0,0,41.923,0,93.639c0,48.722,38.791,93.207,84.772,93.207l102.028-0.039l0.045-102.033
			C186.846,38.614,142.362,0,93.637,0z"/>
	</g>
</g>
</svg>